<svg width="41" height="41" viewBox="0 0 41 41" fill="none" xmlns="http://www.w3.org/2000/svg">
<path d="M32.9558 10.25H34.1687C34.6218 10.25 35.0563 10.43 35.3767 10.7503C35.6971 11.0707 35.877 11.5052 35.877 11.9583V23.9166C35.877 24.3697 35.6971 24.8042 35.3767 25.1246C35.0563 25.445 34.6218 25.625 34.1687 25.625H30.752L23.6283 15.6551C23.214 15.0754 22.6287 14.6397 21.9545 14.4091C21.2803 14.1784 20.5509 14.1643 19.8682 14.3688L15.6213 15.6432C15.0305 15.82 14.4029 15.8337 13.805 15.6827C13.2071 15.5317 12.6612 15.2217 12.2252 14.7856L11.7246 14.2851C11.5459 14.1064 11.4091 13.8903 11.324 13.6524C11.2388 13.4144 11.2076 13.1606 11.2324 12.9091C11.2573 12.6576 11.3376 12.4147 11.4676 12.1981C11.5976 11.9814 11.7741 11.7962 11.9843 11.6559L21.211 5.50594C21.7618 5.1385 22.4075 4.939 23.0696 4.93173C23.7316 4.92445 24.3815 5.10969 24.9403 5.46494L32.0401 9.98348C32.3134 10.1571 32.632 10.2495 32.9558 10.25ZM8.58812 24.4206L5.82745 26.8362C5.63877 27.0016 5.48885 27.2065 5.38833 27.4364C5.28781 27.6663 5.23916 27.9155 5.24585 28.1663C5.25253 28.4172 5.31439 28.6634 5.42701 28.8876C5.53964 29.1118 5.70027 29.3085 5.89749 29.4636L14.6783 36.3653C14.8714 36.5172 15.0949 36.6258 15.3337 36.6835C15.5725 36.7412 15.8209 36.7467 16.062 36.6997C16.3031 36.6527 16.5313 36.5542 16.7309 36.411C16.9305 36.2678 17.0968 36.0832 17.2186 35.8699L18.4213 33.7652C18.7794 33.1384 18.9298 32.4143 18.851 31.6968C18.7721 30.9792 18.468 30.3051 17.9822 29.7711L13.3663 24.6939C12.7644 24.0316 11.9266 23.632 11.0331 23.5809C10.1396 23.5298 9.26167 23.8313 8.58812 24.4206ZM12.0372 8.54165H5.12533C4.67225 8.54165 4.23773 8.72164 3.91735 9.04201C3.59698 9.36238 3.41699 9.79691 3.41699 10.25V23.0898C3.41708 23.7789 3.62551 24.4518 4.01491 25.0202L4.14133 24.9075L6.90028 22.4919C8.07902 21.4604 9.61543 20.9327 11.1792 21.0222C12.7429 21.1116 14.2091 21.8111 15.2626 22.9702L19.8785 28.0474C20.728 28.9816 21.26 30.1609 21.3981 31.416C21.5361 32.6712 21.2733 33.9379 20.6472 35.0345L19.5283 36.9922C20.011 37.1753 20.529 37.2466 21.0432 37.2007C21.5575 37.1548 22.0546 36.993 22.4974 36.7274L30.0311 32.2072C30.2331 32.0858 30.4078 31.924 30.5442 31.7318C30.6807 31.5397 30.7759 31.3213 30.8238 31.0906C30.8718 30.8599 30.8715 30.6217 30.823 30.3911C30.7745 30.1605 30.6788 29.9424 30.5419 29.7506L21.5441 17.1448C21.4405 17 21.2942 16.8913 21.1258 16.8337C20.9573 16.7761 20.7751 16.7726 20.6045 16.8236L16.3576 18.0964C15.3237 18.4065 14.2252 18.431 13.1785 18.1672C12.1318 17.9034 11.176 17.3612 10.4126 16.5981L9.91208 16.0976C9.46515 15.6509 9.12291 15.1106 8.91003 14.5157C8.69716 13.9207 8.61895 13.286 8.68105 12.6572C8.74314 12.0283 8.944 11.4211 9.26913 10.8793C9.59427 10.3375 10.0356 9.87458 10.5612 9.52394L12.0372 8.54165Z" fill="#3525CD"/>
</svg>
