<svg width="60" height="50" viewBox="0 0 60 50" fill="none" xmlns="http://www.w3.org/2000/svg">
<path d="M29.9167 10.4713C29.9167 5.125 25.5417 0.75 20.1954 0.75H0.75V35.75H20.315C29.9167 35.75 29.9167 45.4742 29.9167 45.4742M29.9167 45.4742V10.4713C29.9167 5.12208 34.2917 0.75 39.6379 0.75H59.0833V35.75H39.6379C29.9167 35.75 29.9167 45.4742 29.9167 45.4742ZM35.3854 48.7525C35.994 47.4921 36.942 46.4264 38.1229 45.6752C39.3039 44.924 40.6709 44.517 42.0704 44.5H56.1667M24.4479 48.7525C23.8505 47.4836 22.9051 46.4103 21.7217 45.6575C20.5382 44.9047 19.1655 44.5033 17.7629 44.5H3.66667" stroke="white" stroke-width="1.5" stroke-miterlimit="10" stroke-linecap="round" stroke-linejoin="round"/>
</svg>
