<svg width="55" height="55" viewBox="0 0 55 55" fill="none" xmlns="http://www.w3.org/2000/svg">
<path d="M3.59219 7.55906C3.71135 5.58479 4.99698 4.0551 6.9575 3.80073C8.47229 3.60135 10.6608 3.4375 13.75 3.4375C16.8392 3.4375 19.0277 3.6025 20.5425 3.79958C22.5042 4.05625 23.7886 5.58479 23.9078 7.55906C23.9938 8.97188 24.0625 10.9691 24.0625 13.75C24.0625 16.5309 23.9938 18.5281 23.9078 19.9409C23.7886 21.9152 22.5042 23.4449 20.5425 23.6993C19.0277 23.8975 16.8392 24.0625 13.75 24.0625C10.6608 24.0625 8.47229 23.8975 6.9575 23.7004C4.99698 23.4438 3.71135 21.9152 3.59219 19.9409C3.50625 18.5281 3.4375 16.5309 3.4375 13.75C3.4375 10.9691 3.50625 8.97188 3.59219 7.55906ZM3.59219 47.4409C3.71135 49.4152 4.99698 50.9449 6.9575 51.1993C8.47229 51.3986 10.6608 51.5625 13.75 51.5625C16.8392 51.5625 19.0277 51.3975 20.5425 51.2004C22.5042 50.9449 23.7886 49.4152 23.9078 47.4409C23.9938 46.0281 24.0625 44.0309 24.0625 41.25C24.0625 38.4691 23.9938 36.4719 23.9078 35.0591C23.7886 33.0848 22.5042 31.5551 20.5425 31.3007C19.0277 31.1014 16.8392 30.9375 13.75 30.9375C10.6608 30.9375 8.47229 31.1025 6.9575 31.2996C4.99698 31.5563 3.71135 33.0848 3.59219 35.0591C3.50625 36.4719 3.4375 38.4691 3.4375 41.25C3.4375 44.0309 3.50625 46.0281 3.59219 47.4409ZM47.4409 3.59219C49.4152 3.71135 50.9449 4.99698 51.1993 6.9575C51.3986 8.47229 51.5625 10.6608 51.5625 13.75C51.5625 16.8392 51.3975 19.0277 51.2004 20.5425C50.9449 22.5042 49.4152 23.7886 47.4409 23.9078C46.0281 23.9938 44.0309 24.0625 41.25 24.0625C38.4691 24.0625 36.4719 23.9938 35.0591 23.9078C33.0848 23.7886 31.5551 22.5042 31.3007 20.5425C31.1014 19.0277 30.9375 16.8392 30.9375 13.75C30.9375 10.6608 31.1025 8.47229 31.2996 6.9575C31.5563 4.99698 33.0848 3.71135 35.0591 3.59219C36.4719 3.50625 38.4691 3.4375 41.25 3.4375C44.0309 3.4375 46.0281 3.50625 47.4409 3.59219ZM39.859 51.4972C38.6936 51.3803 37.9718 50.3903 37.9271 49.2193C37.8893 48.2178 37.8503 46.7511 37.8285 44.6703C36.3122 44.6586 34.7962 44.6261 33.2807 44.5729C32.1097 44.5271 31.1197 43.8064 31.0028 42.641C30.9576 42.1788 30.9358 41.7145 30.9375 41.25C30.9375 40.7138 30.9627 40.252 31.0028 39.859C31.1197 38.6936 32.1097 37.9718 33.2807 37.9271C34.2822 37.8893 35.7489 37.8503 37.8297 37.8285C37.8503 35.7489 37.8893 34.2822 37.9271 33.2807C37.9729 32.1097 38.6936 31.1197 39.859 31.0028C40.252 30.9627 40.7138 30.9375 41.25 30.9375C41.7863 30.9375 42.248 30.9627 42.641 31.0028C43.8064 31.1197 44.5282 32.1097 44.5729 33.2807C44.6107 34.2822 44.6497 35.7489 44.6715 37.8297C46.7511 37.8503 48.2178 37.8893 49.2193 37.9271C50.3903 37.9729 51.3803 38.6936 51.4972 39.859C51.5373 40.252 51.5625 40.7138 51.5625 41.25C51.5625 41.7863 51.5373 42.248 51.4972 42.641C51.3803 43.8064 50.3903 44.5282 49.2193 44.5729C48.2178 44.6107 46.7511 44.6497 44.6703 44.6715C44.6586 46.1878 44.6261 47.7039 44.5729 49.2193C44.5271 50.3903 43.8064 51.3803 42.641 51.4972C42.248 51.5373 41.7863 51.5625 41.25 51.5625C40.7138 51.5625 40.252 51.5373 39.859 51.4972Z" stroke="white" stroke-width="1.5" stroke-linejoin="round"/>
</svg>
