<svg width="34" height="34" viewBox="0 0 34 34" fill="none" xmlns="http://www.w3.org/2000/svg">
<path d="M8.50033 26.916V14.166C8.50033 11.9117 9.39586 9.74967 10.9899 8.15561C12.584 6.56155 14.746 5.66602 17.0003 5.66602C19.2547 5.66602 21.4167 6.56155 23.0107 8.15561C24.6048 9.74967 25.5003 11.9117 25.5003 14.166V26.916M8.50033 26.916H25.5003M8.50033 26.916H5.66699M25.5003 26.916H28.3337M15.5837 31.166H18.417" stroke="black" stroke-width="1.5" stroke-linecap="round" stroke-linejoin="round"/>
<path d="M17.0007 5.66634C17.7831 5.66634 18.4173 5.03208 18.4173 4.24967C18.4173 3.46727 17.7831 2.83301 17.0007 2.83301C16.2182 2.83301 15.584 3.46727 15.584 4.24967C15.584 5.03208 16.2182 5.66634 17.0007 5.66634Z" stroke="black" stroke-width="1.5"/>
</svg>
