<svg width="34" height="34" viewBox="0 0 34 34" fill="none" xmlns="http://www.w3.org/2000/svg">
<path d="M16.9997 2.83301C24.8239 2.83301 31.1663 9.17543 31.1663 16.9997C31.1663 24.8239 24.8239 31.1663 16.9997 31.1663C9.17543 31.1663 2.83301 24.8239 2.83301 16.9997C2.83301 9.17543 9.17543 2.83301 16.9997 2.83301ZM16.9997 5.66634C13.9939 5.66634 11.1112 6.86039 8.9858 8.9858C6.86039 11.1112 5.66634 13.9939 5.66634 16.9997C5.66634 20.0055 6.86039 22.8881 8.9858 25.0136C11.1112 27.139 13.9939 28.333 16.9997 28.333C20.0055 28.333 22.8881 27.139 25.0136 25.0136C27.139 22.8881 28.333 20.0055 28.333 16.9997C28.333 13.9939 27.139 11.1112 25.0136 8.9858C22.8881 6.86039 20.0055 5.66634 16.9997 5.66634ZM16.9997 22.6663C17.3754 22.6663 17.7357 22.8156 18.0014 23.0813C18.2671 23.347 18.4163 23.7073 18.4163 24.083C18.4163 24.4587 18.2671 24.8191 18.0014 25.0847C17.7357 25.3504 17.3754 25.4997 16.9997 25.4997C16.624 25.4997 16.2636 25.3504 15.9979 25.0847C15.7323 24.8191 15.583 24.4587 15.583 24.083C15.583 23.7073 15.7323 23.347 15.9979 23.0813C16.2636 22.8156 16.624 22.6663 16.9997 22.6663ZM16.9997 9.20801C18.1929 9.20804 19.3489 9.62359 20.269 10.3833C21.1892 11.143 21.8161 12.1994 22.042 13.371C22.268 14.5426 22.0789 15.7564 21.5072 16.8038C20.9355 17.8511 20.017 18.6668 18.9093 19.1105C18.7453 19.1708 18.5974 19.2683 18.4773 19.3953C18.4149 19.4661 18.405 19.5568 18.4064 19.6503L18.4163 19.833C18.4159 20.1941 18.2777 20.5414 18.0298 20.8039C17.7819 21.0665 17.4432 21.2245 17.0827 21.2457C16.7222 21.2668 16.3673 21.1496 16.0904 20.9178C15.8135 20.686 15.6356 20.3573 15.5929 19.9988L15.583 19.833V19.4788C15.583 17.8454 16.9005 16.8651 17.8553 16.4812C18.244 16.326 18.583 16.0679 18.8359 15.7346C19.0889 15.4013 19.2463 15.0053 19.2913 14.5893C19.3362 14.1733 19.267 13.7529 19.091 13.3732C18.915 12.9936 18.6389 12.669 18.2924 12.4344C17.9459 12.1999 17.5421 12.0641 17.1242 12.0417C16.7064 12.0194 16.2903 12.1112 15.9207 12.3075C15.5512 12.5037 15.242 12.797 15.0265 13.1557C14.811 13.5144 14.6973 13.925 14.6976 14.3434C14.6976 14.7191 14.5483 15.0795 14.2827 15.3452C14.017 15.6108 13.6566 15.7601 13.2809 15.7601C12.9052 15.7601 12.5449 15.6108 12.2792 15.3452C12.0135 15.0795 11.8643 14.7191 11.8643 14.3434C11.8643 12.9814 12.4053 11.6752 13.3684 10.7121C14.3315 9.74906 15.6377 9.20801 16.9997 9.20801Z" fill="black"/>
</svg>
