<svg width="40" height="40" viewBox="0 0 40 40" fill="none" xmlns="http://www.w3.org/2000/svg">
<circle cx="20" cy="20" r="20" fill="#464555"/>
<path d="M20.5 11C21.6272 11 22.7082 11.3951 23.5052 12.0983C24.3022 12.8016 24.75 13.7554 24.75 14.75C24.75 15.7446 24.3022 16.6984 23.5052 17.4017C22.7082 18.1049 21.6272 18.5 20.5 18.5C19.3728 18.5 18.2918 18.1049 17.4948 17.4017C16.6978 16.6984 16.25 15.7446 16.25 14.75C16.25 13.7554 16.6978 12.8016 17.4948 12.0983C18.2918 11.3951 19.3728 11 20.5 11ZM20.5 20.375C25.1962 20.375 29 22.0531 29 24.125V26H12V24.125C12 22.0531 15.8037 20.375 20.5 20.375Z" fill="white"/>
</svg>
