<svg width="33" height="33" viewBox="0 0 33 33" fill="none" xmlns="http://www.w3.org/2000/svg">
<path d="M6.875 28.875C6.11875 28.875 5.47158 28.606 4.9335 28.0679C4.39542 27.5298 4.12592 26.8822 4.125 26.125V6.875C4.125 6.11875 4.3945 5.47158 4.9335 4.9335C5.4725 4.39542 6.11967 4.12592 6.875 4.125H15.125C15.5146 4.125 15.8414 4.257 16.1054 4.521C16.3694 4.785 16.5009 5.11133 16.5 5.5C16.4991 5.88867 16.3671 6.21546 16.104 6.48037C15.8409 6.74529 15.5146 6.87683 15.125 6.875H6.875V26.125H15.125C15.5146 26.125 15.8414 26.257 16.1054 26.521C16.3694 26.785 16.5009 27.1113 16.5 27.5C16.4991 27.8887 16.3671 28.2155 16.104 28.4804C15.8409 28.7453 15.5146 28.8768 15.125 28.875H6.875ZM23.6156 17.875H13.75C13.3604 17.875 13.0341 17.743 12.771 17.479C12.5079 17.215 12.3759 16.8887 12.375 16.5C12.3741 16.1113 12.5061 15.785 12.771 15.521C13.0359 15.257 13.3623 15.125 13.75 15.125H23.6156L21.0375 12.5469C20.7854 12.2948 20.6594 11.9854 20.6594 11.6187C20.6594 11.2521 20.7854 10.9313 21.0375 10.6562C21.2896 10.3812 21.6104 10.2378 22 10.2259C22.3896 10.214 22.7219 10.346 22.9969 10.6219L27.9125 15.5375C28.1875 15.8125 28.325 16.1333 28.325 16.5C28.325 16.8667 28.1875 17.1875 27.9125 17.4625L22.9969 22.3781C22.7219 22.6531 22.3955 22.7851 22.0179 22.7741C21.6402 22.7631 21.3134 22.6197 21.0375 22.3438C20.7854 22.0688 20.6653 21.7424 20.6772 21.3647C20.6892 20.9871 20.8207 20.6718 21.0719 20.4188L23.6156 17.875Z" fill="#93000A"/>
</svg>
