<svg width="21" height="21" viewBox="0 0 21 21" fill="none" xmlns="http://www.w3.org/2000/svg">
<path d="M3.31374 21V16.485C2.26439 15.575 1.44976 14.5119 0.869856 13.2956C0.289952 12.0794 0 10.7975 0 9.45C0 6.825 0.966507 4.59375 2.89952 2.75625C4.83253 0.91875 7.17976 0 9.94121 0C12.2424 0 14.2813 0.643125 16.0578 1.92937C17.8344 3.21562 18.9896 4.89125 19.5234 6.95625L20.9594 12.3375C21.0514 12.67 20.987 12.9719 20.7661 13.2431C20.5452 13.5144 20.2506 13.65 19.8824 13.65H17.6733V16.8C17.6733 17.3775 17.457 17.8719 17.0243 18.2831C16.5917 18.6944 16.0716 18.9 15.4641 18.9H13.255V21H11.0458V16.8H15.4641V11.55H18.4465L17.3971 7.48125C16.9737 5.88875 16.0716 4.59375 14.6909 3.59625C13.3102 2.59875 11.7269 2.1 9.94121 2.1C7.80569 2.1 5.98314 2.80875 4.47355 4.22625C2.96395 5.64375 2.20916 7.3675 2.20916 9.3975C2.20916 10.4475 2.43468 11.445 2.88571 12.39C3.33675 13.335 3.97649 14.175 4.80492 14.91L5.5229 15.54V21H3.31374ZM8.83663 13.65H11.0458L11.2115 12.3375C11.3588 12.285 11.4922 12.2237 11.6119 12.1537C11.7316 12.0837 11.8374 12.005 11.9295 11.9175L13.1997 12.4425L14.3043 10.6575L13.1997 9.87C13.2365 9.73 13.255 9.59 13.255 9.45C13.255 9.31 13.2365 9.17 13.1997 9.03L14.3043 8.2425L13.1997 6.4575L11.9295 6.9825C11.8374 6.895 11.7316 6.81625 11.6119 6.74625C11.4922 6.67625 11.3588 6.615 11.2115 6.5625L11.0458 5.25H8.83663L8.67095 6.5625C8.52367 6.615 8.3902 6.67625 8.27054 6.74625C8.15087 6.81625 8.04502 6.895 7.95297 6.9825L6.6827 6.4575L5.57812 8.2425L6.6827 9.03C6.64588 9.17 6.62748 9.31 6.62748 9.45C6.62748 9.59 6.64588 9.73 6.6827 9.87L5.57812 10.6575L6.6827 12.4425L7.95297 11.9175C8.04502 12.005 8.15087 12.0837 8.27054 12.1537C8.3902 12.2237 8.52367 12.285 8.67095 12.3375L8.83663 13.65ZM9.94121 11.025C9.48097 11.025 9.08977 10.8719 8.7676 10.5656C8.44543 10.2594 8.28434 9.8875 8.28434 9.45C8.28434 9.0125 8.44543 8.64062 8.7676 8.33437C9.08977 8.02812 9.48097 7.875 9.94121 7.875C10.4015 7.875 10.7927 8.02812 11.1148 8.33437C11.437 8.64062 11.5981 9.0125 11.5981 9.45C11.5981 9.8875 11.437 10.2594 11.1148 10.5656C10.7927 10.8719 10.4015 11.025 9.94121 11.025Z" fill="#6B6B80"/>
</svg>
