<svg width="36" height="42" viewBox="0 0 36 42" fill="none" xmlns="http://www.w3.org/2000/svg">
<rect width="36" height="42" rx="8" fill="#4F46E5"/>
<path d="M28 28L24 24H14C13.45 24 12.9792 23.8042 12.5875 23.4125C12.1958 23.0208 12 22.55 12 22V21H23C23.55 21 24.0208 20.8042 24.4125 20.4125C24.8042 20.0208 25 19.55 25 19V12H26C26.55 12 27.0208 12.1958 27.4125 12.5875C27.8042 12.9792 28 13.45 28 14V28ZM10 18.175L11.175 17H21V10H10V18.175ZM8 23V10C8 9.45 8.19583 8.97917 8.5875 8.5875C8.97917 8.19583 9.45 8 10 8H21C21.55 8 22.0208 8.19583 22.4125 8.5875C22.8042 8.97917 23 9.45 23 10V17C23 17.55 22.8042 18.0208 22.4125 18.4125C22.0208 18.8042 21.55 19 21 19H12L8 23ZM10 17V10V17Z" fill="#DAD7FF"/>
</svg>
