<svg width="30" height="31" viewBox="0 0 30 31" fill="none" xmlns="http://www.w3.org/2000/svg">
<path fill-rule="evenodd" clip-rule="evenodd" d="M12.2951 10L14.5 11.1013L16.7049 10H27V28.75H17.2937L14.5 30.1475L11.7051 28.75H2V10H12.2951ZM11.705 12.5H4.50002V26.25H12.2951L13.25 26.7269V13.2725L11.705 12.5ZM24.5 12.5H17.2937L15.75 13.2722V26.7269L16.7049 26.25H24.5V12.5ZM23.25 20V21.875H17V20H23.25ZM12 20V21.875H5.75V20H12ZM23.25 15V16.875H17V15H23.25ZM12 15V16.875H5.75V15H12Z" fill="#6B6B80"/>
</svg>
