<svg width="29" height="29" viewBox="0 0 29 29" fill="none" xmlns="http://www.w3.org/2000/svg">
<path d="M14.5 3.625C17.1009 3.625 19.2125 5.73656 19.2125 8.3375C19.2125 10.9384 17.1009 13.05 14.5 13.05C11.8991 13.05 9.7875 10.9384 9.7875 8.3375C9.7875 5.73656 11.8991 3.625 14.5 3.625ZM4.35 6.8875C6.15344 6.8875 7.6125 8.34656 7.6125 10.15C7.6125 11.9534 6.15344 13.4125 4.35 13.4125C2.54656 13.4125 1.0875 11.9534 1.0875 10.15C1.0875 8.34656 2.54656 6.8875 4.35 6.8875ZM0 21.75C0 18.5464 2.59641 15.95 5.8 15.95C6.38 15.95 6.94187 16.0361 7.47203 16.1947C5.98125 17.8622 5.075 20.0644 5.075 22.475V23.2C5.075 23.7166 5.18375 24.2059 5.37859 24.65H1.45C0.647969 24.65 0 24.002 0 23.2V21.75ZM23.6214 24.65C23.8162 24.2059 23.925 23.7166 23.925 23.2V22.475C23.925 20.0644 23.0188 17.8622 21.528 16.1947C22.0581 16.0361 22.62 15.95 23.2 15.95C26.4036 15.95 29 18.5464 29 21.75V23.2C29 24.002 28.352 24.65 27.55 24.65H23.6214ZM21.3875 10.15C21.3875 8.34656 22.8466 6.8875 24.65 6.8875C26.4534 6.8875 27.9125 8.34656 27.9125 10.15C27.9125 11.9534 26.4534 13.4125 24.65 13.4125C22.8466 13.4125 21.3875 11.9534 21.3875 10.15ZM7.25 22.475C7.25 18.4694 10.4944 15.225 14.5 15.225C18.5056 15.225 21.75 18.4694 21.75 22.475V23.2C21.75 24.002 21.102 24.65 20.3 24.65H8.7C7.89797 24.65 7.25 24.002 7.25 23.2V22.475Z" fill="#666769"/>
</svg>
