<svg width="45" height="45" viewBox="0 0 45 45" fill="none" xmlns="http://www.w3.org/2000/svg">
<path d="M18.2139 6.82315L18.2118 6.82497C17.1695 7.75307 15.8439 8.30339 14.4506 8.3831C13.0218 8.49747 12.3074 8.5556 11.7131 8.7656C11.0333 9.0059 10.4159 9.39512 9.90588 9.90477C9.3959 10.4144 9.0063 11.0316 8.76556 11.7112C8.55556 12.3075 8.49743 13.0218 8.38306 14.4487C8.26681 15.9187 7.79993 17.0662 6.82493 18.2118L6.82313 18.214C5.89621 19.3019 5.43163 19.8472 5.15993 20.4168C4.84924 21.0673 4.68782 21.7789 4.6875 22.4998C4.68718 23.2206 4.84795 23.9324 5.15806 24.5831C5.43181 25.1531 5.89681 25.6987 6.82681 26.7881C7.75491 27.8305 8.30335 29.156 8.38306 30.5493C8.49743 31.9781 8.55556 32.6925 8.76556 33.2868C9.00587 33.9666 9.39508 34.5841 9.90473 35.094C10.4144 35.604 11.0316 35.9936 11.7112 36.2343C12.3074 36.4443 13.0218 36.5025 14.4487 36.6168C15.843 36.6967 17.1692 37.2458 18.2118 38.175L18.214 38.1768C19.3019 39.1037 19.8472 39.5683 20.4168 39.84C21.0674 40.1504 21.7791 40.3115 22.4999 40.3115C23.2208 40.3115 23.9325 40.1504 24.5831 39.84C25.1531 39.5681 25.6987 39.1031 26.7881 38.1731C27.9112 37.2168 29.0493 36.735 30.5493 36.6168C31.9781 36.5025 32.6924 36.4443 33.2868 36.2343C33.9666 35.994 34.584 35.6048 35.094 35.0952C35.604 34.5855 35.9936 33.9683 36.2343 33.2887C36.4443 32.6925 36.5024 31.9781 36.6168 30.5512C36.6966 29.157 37.2458 27.8307 38.1749 26.7881L38.1767 26.786C39.1037 25.698 39.5682 25.1527 39.8399 24.5831C40.4699 23.2668 40.4699 21.735 39.8399 20.4168C39.5681 19.8468 39.1031 19.3012 38.1731 18.2118C37.2168 17.0887 36.7349 15.9506 36.6168 14.4506C36.5024 13.0218 36.4443 12.3075 36.2343 11.7131C35.7487 10.335 34.6649 9.2531 33.2887 8.7656C32.6924 8.5556 31.9781 8.49747 30.5512 8.3831C29.0512 8.26497 27.9112 7.78122 26.7881 6.82497L26.7859 6.82314C25.698 5.89624 25.1527 5.43167 24.5831 5.15997C23.9325 4.84957 23.2208 4.68848 22.4999 4.68848C21.7791 4.68848 21.0674 4.84957 20.4168 5.15997C19.8472 5.43167 19.3019 5.89624 18.2139 6.82315Z" stroke="#3525CD" stroke-width="1.5" stroke-linecap="round" stroke-linejoin="round"/>
<path d="M31.875 36C31.2806 24.3994 13.7194 24.3994 13.125 36M27.1875 17.3438C27.1875 18.587 26.6936 19.7792 25.8146 20.6583C24.9355 21.5374 23.7432 22.0312 22.5 22.0312C21.2568 22.0312 20.0645 21.5374 19.1854 20.6583C18.3064 19.7792 17.8125 18.587 17.8125 17.3438C17.8125 16.1005 18.3064 14.9083 19.1854 14.0292C20.0645 13.1501 21.2568 12.6562 22.5 12.6562C23.7432 12.6562 24.9355 13.1501 25.8146 14.0292C26.6936 14.9083 27.1875 16.1005 27.1875 17.3438Z" stroke="#3525CD" stroke-width="1.5" stroke-linecap="round" stroke-linejoin="round"/>
</svg>
