<svg width="61" height="61" viewBox="0 0 61 61" fill="none" xmlns="http://www.w3.org/2000/svg">
<path fill-rule="evenodd" clip-rule="evenodd" d="M15.25 19.0625C15.25 17.5605 15.5458 16.0732 16.1206 14.6856C16.6954 13.2979 17.5379 12.037 18.6 10.975C19.662 9.9129 20.9229 9.07042 22.3106 8.49563C23.6982 7.92084 25.1855 7.625 26.6875 7.625C28.1895 7.625 29.6768 7.92084 31.0644 8.49563C32.4521 9.07042 33.713 9.9129 34.775 10.975C35.8371 12.037 36.6796 13.2979 37.2544 14.6856C37.8292 16.0732 38.125 17.5605 38.125 19.0625C38.125 22.0959 36.92 25.0051 34.775 27.15C32.6301 29.295 29.7209 30.5 26.6875 30.5C23.6541 30.5 20.7449 29.295 18.6 27.15C16.455 25.0051 15.25 22.0959 15.25 19.0625ZM53.07 13.3438C53.9011 13.3438 54.7094 13.5268 55.4604 13.8775C56.2077 14.2283 56.8711 14.7353 57.4163 15.3567C58.5104 16.6072 59.0938 18.2466 59.0938 19.9165C59.0938 21.5864 58.5104 23.2258 57.4163 24.4724V24.4801L50.996 31.7619C50.8171 31.9648 50.5971 32.1272 50.3506 32.2385C50.1041 32.3498 49.8368 32.4073 49.5663 32.4073C49.2959 32.4073 49.0285 32.3498 48.782 32.2385C48.5355 32.1272 48.3155 31.9648 48.1366 31.7619L41.7087 24.4763L41.7011 24.4686C40.613 23.201 40.0187 21.5833 40.0274 19.9127C40.0274 18.2428 40.6108 16.6072 41.7049 15.3567C42.25 14.7364 42.9154 14.2331 43.6607 13.8775C44.6106 13.4283 45.6676 13.2552 46.7112 13.3778C47.7547 13.5005 48.7427 13.9141 49.5625 14.5714C49.9082 14.2994 50.2831 14.0681 50.6872 13.8775C51.4344 13.5268 52.2427 13.3438 53.07 13.3438ZM7.625 53.375V51.4688C7.625 46.9186 9.43253 42.5549 12.6499 39.3375C15.8674 36.12 20.2311 34.3125 24.7812 34.3125H28.5938C33.1439 34.3125 37.5076 36.12 40.725 39.3375C43.9425 42.5549 45.75 46.9186 45.75 51.4688V53.375H7.625Z" fill="#3525CD"/>
</svg>
