<svg width="36" height="36" viewBox="0 0 36 36" fill="none" xmlns="http://www.w3.org/2000/svg">
<path fill-rule="evenodd" clip-rule="evenodd" d="M9 11.25C9 10.3636 9.17459 9.48583 9.51381 8.66689C9.85303 7.84794 10.3502 7.10382 10.977 6.47703C11.6038 5.85023 12.3479 5.35303 13.1669 5.01381C13.9858 4.67459 14.8636 4.5 15.75 4.5C16.6364 4.5 17.5142 4.67459 18.3331 5.01381C19.1521 5.35303 19.8962 5.85023 20.523 6.47703C21.1498 7.10382 21.647 7.84794 21.9862 8.66689C22.3254 9.48583 22.5 10.3636 22.5 11.25C22.5 13.0402 21.7888 14.7571 20.523 16.023C19.2571 17.2888 17.5402 18 15.75 18C13.9598 18 12.2429 17.2888 10.977 16.023C9.71116 14.7571 9 13.0402 9 11.25ZM31.32 7.875C31.8105 7.875 32.2875 7.983 32.7307 8.19C33.1717 8.397 33.5633 8.69625 33.885 9.063C34.5308 9.801 34.875 10.7685 34.875 11.754C34.875 12.7395 34.5308 13.707 33.885 14.4428V14.4473L30.096 18.7448C29.9904 18.8645 29.8606 18.9603 29.7151 19.026C29.5696 19.0917 29.4119 19.1256 29.2523 19.1256C29.0926 19.1256 28.9349 19.0917 28.7894 19.026C28.6439 18.9603 28.5141 18.8645 28.4085 18.7448L24.615 14.445L24.6105 14.4405C23.9683 13.6924 23.6176 12.7377 23.6227 11.7518C23.6227 10.7663 23.967 9.801 24.6128 9.063C24.9344 8.69687 25.3271 8.39987 25.767 8.19C26.3276 7.92489 26.9514 7.82271 27.5672 7.89512C28.1831 7.96753 28.7662 8.2116 29.25 8.5995C29.454 8.439 29.6753 8.3025 29.9138 8.19C30.3548 7.983 30.8318 7.875 31.32 7.875ZM4.5 31.5V30.375C4.5 27.6897 5.56674 25.1144 7.46554 23.2155C9.36435 21.3167 11.9397 20.25 14.625 20.25H16.875C19.5603 20.25 22.1356 21.3167 24.0345 23.2155C25.9333 25.1144 27 27.6897 27 30.375V31.5H4.5Z" fill="#BA1A1A"/>
</svg>
