<svg width="59" height="59" viewBox="0 0 59 59" fill="none" xmlns="http://www.w3.org/2000/svg">
<path d="M29.5 13.5208C31.782 13.5208 33.9705 14.4273 35.5841 16.0409C37.1977 17.6544 38.1042 19.843 38.1042 22.1249C38.1042 24.4069 37.1977 26.5954 35.5841 28.209C33.9705 29.8226 31.782 30.7291 29.5 30.7291C27.218 30.7291 25.0295 29.8226 23.4159 28.209C21.8023 26.5954 20.8958 24.4069 20.8958 22.1249C20.8958 19.843 21.8023 17.6544 23.4159 16.0409C25.0295 14.4273 27.218 13.5208 29.5 13.5208ZM12.2917 19.6666C13.6683 19.6666 14.9467 20.0353 16.0529 20.6991C15.6842 24.2145 16.7167 27.7053 18.8308 30.4341C17.6017 32.7941 15.1433 34.4166 12.2917 34.4166C10.3357 34.4166 8.45983 33.6396 7.07675 32.2565C5.69367 30.8734 4.91667 28.9976 4.91667 27.0416C4.91667 25.0856 5.69367 23.2098 7.07675 21.8267C8.45983 20.4436 10.3357 19.6666 12.2917 19.6666ZM46.7083 19.6666C48.6643 19.6666 50.5402 20.4436 51.9232 21.8267C53.3063 23.2098 54.0833 25.0856 54.0833 27.0416C54.0833 28.9976 53.3063 30.8734 51.9232 32.2565C50.5402 33.6396 48.6643 34.4166 46.7083 34.4166C43.8567 34.4166 41.3983 32.7941 40.1692 30.4341C42.3116 27.6666 43.3064 24.1805 42.9471 20.6991C44.0533 20.0353 45.3317 19.6666 46.7083 19.6666ZM13.5208 44.8645C13.5208 39.7758 20.6746 35.6458 29.5 35.6458C38.3254 35.6458 45.4792 39.7758 45.4792 44.8645V49.1666H13.5208V44.8645ZM0 49.1666V45.4791C0 42.062 4.64625 39.1858 10.9396 38.3499C9.48917 40.0216 8.60417 42.3324 8.60417 44.8645V49.1666H0ZM59 49.1666H50.3958V44.8645C50.3958 42.3324 49.5108 40.0216 48.0604 38.3499C54.3537 39.1858 59 42.062 59 45.4791V49.1666Z" fill="#3525CD"/>
</svg>
