<svg width="30" height="38" viewBox="0 0 30 38" fill="none" xmlns="http://www.w3.org/2000/svg">
<path d="M10.7079 26.4903H19.0442C19.5302 26.4903 19.9375 26.3259 20.2661 25.9973C20.5948 25.6686 20.7591 25.2606 20.7591 24.7732V18.5619C20.7591 18.076 20.5948 17.6687 20.2661 17.34C19.9375 17.0113 19.5295 16.847 19.0421 16.847H18.6745V14.722C18.6745 13.6609 18.3132 12.7684 17.5907 12.0445C16.8682 11.322 15.9765 10.9607 14.9154 10.9607C13.8543 10.9607 12.9625 11.322 12.24 12.0445C11.5175 12.767 11.1562 13.6595 11.1562 14.722V16.847H10.7058C10.2198 16.847 9.81254 17.0113 9.48388 17.34C9.15521 17.6687 8.99087 18.076 8.99087 18.5619V24.7732C8.99087 25.2606 9.15521 25.6686 9.48388 25.9973C9.81254 26.3259 10.2205 26.4903 10.7079 26.4903ZM12.7904 16.847V14.722C12.7904 14.1199 12.9944 13.6149 13.4024 13.2069C13.8104 12.7989 14.3147 12.5949 14.9154 12.5949C15.516 12.5949 16.0211 12.7989 16.4305 13.2069C16.8399 13.6149 17.0432 14.1199 17.0404 14.722V16.847H12.7904ZM14.2651 37.4616C14.0526 37.4262 13.8543 37.3731 13.6701 37.3023C9.48812 35.7085 6.16463 33.0055 3.69963 29.1933C1.23463 25.381 0.00141667 21.2543 0 16.813V7.71162C0 6.98346 0.207542 6.32754 0.622625 5.74387C1.03629 5.16021 1.5725 4.73733 2.23125 4.47525L13.6744 0.22525C14.088 0.0750832 14.4883 0 14.875 0C15.2617 0 15.6627 0.0750832 16.0777 0.22525L27.5188 4.47525C28.1761 4.73875 28.7123 5.16162 29.1274 5.74387C29.5425 6.32754 29.75 6.98346 29.75 7.71162V16.813C29.75 21.2543 28.5175 25.381 26.0525 29.1933C23.5875 33.0055 20.264 35.7085 16.082 37.3023C15.8964 37.3731 15.6974 37.4262 15.4849 37.4616C15.2724 37.497 15.0691 37.5147 14.875 37.5147C14.6809 37.5147 14.4776 37.497 14.2651 37.4616ZM14.875 35.513C18.5583 34.3442 21.6042 32.0068 24.0125 28.5005C26.4208 24.9943 27.625 21.0984 27.625 16.813V7.67125C27.625 7.39925 27.5499 7.15417 27.3997 6.936C27.251 6.71783 27.0399 6.55492 26.7665 6.44725L15.3255 2.19725C15.1895 2.14058 15.0393 2.11225 14.875 2.11225C14.7107 2.11225 14.5605 2.14058 14.4245 2.19725L2.9835 6.44725C2.71008 6.55492 2.499 6.71783 2.35025 6.936C2.20008 7.15417 2.125 7.39925 2.125 7.67125V16.813C2.125 21.0984 3.32917 24.9943 5.7375 28.5005C8.14583 32.0068 11.1917 34.3442 14.875 35.513Z" fill="#3525CD"/>
</svg>
