<svg width="21" height="20" viewBox="0 0 21 20" fill="none" xmlns="http://www.w3.org/2000/svg">
<path d="M6.95521 19.2302L5.21563 16.299L1.90729 15.5854L2.23229 12.1719L0 9.61562L2.23333 7.05937L1.90729 3.64687L5.21667 2.93333L6.95521 0.00104159L10.0563 1.31042L13.1573 0L14.8969 2.93333L18.2052 3.64583L17.8802 7.05937L20.1135 9.61562L17.8823 12.1719L18.2063 15.5854L14.8969 16.2979L13.1583 19.2313L10.0563 17.9208L6.95521 19.2302ZM7.4 17.8969L10.0563 16.7917L12.725 17.8969L14.2229 15.3969L17.0875 14.7604L16.8271 11.8031L18.7542 9.61562L16.8271 7.41667L17.0875 4.45937L14.2229 3.83437L12.7125 1.33438L10.0563 2.44062L7.38854 1.33438L5.88958 3.83437L3.025 4.45937L3.28542 7.41667L1.35833 9.61562L3.28542 11.8031L3.025 14.7719L5.88958 15.3969L7.4 17.8969ZM8.9625 12.5927L14.1271 7.42812L13.3896 6.67813L8.9625 11.1052L6.72292 8.87812L5.98542 9.61562L8.9625 12.5927Z" fill="#3525CD"/>
</svg>
