<svg width="36" height="36" viewBox="0 0 36 36" fill="none" xmlns="http://www.w3.org/2000/svg">
<path d="M9 33C8.175 33 7.469 32.7065 6.882 32.1195C6.295 31.5325 6.001 30.826 6 30V15C6 14.175 6.294 13.469 6.882 12.882C7.47 12.295 8.176 12.001 9 12H10.5V9C10.5 6.925 11.2315 5.1565 12.6945 3.6945C14.1575 2.2325 15.926 1.501 18 1.5C20.074 1.499 21.843 2.2305 23.307 3.6945C24.771 5.1585 25.502 6.927 25.5 9V12H27C27.825 12 28.5315 12.294 29.1195 12.882C29.7075 13.47 30.001 14.176 30 15V30C30 30.825 29.7065 31.5315 29.1195 32.1195C28.5325 32.7075 27.826 33.001 27 33H9ZM20.1195 24.6195C20.7065 24.0315 21 23.325 21 22.5C21 21.675 20.7065 20.969 20.1195 20.382C19.5325 19.795 18.826 19.501 18 19.5C17.174 19.499 16.468 19.793 15.882 20.382C15.296 20.971 15.002 21.677 15 22.5C14.998 23.323 15.292 24.0295 15.882 24.6195C16.472 25.2095 17.178 25.503 18 25.5C18.822 25.497 19.5285 25.2035 20.1195 24.6195ZM13.5 12H22.5V9C22.5 7.75 22.0625 6.6875 21.1875 5.8125C20.3125 4.9375 19.25 4.5 18 4.5C16.75 4.5 15.6875 4.9375 14.8125 5.8125C13.9375 6.6875 13.5 7.75 13.5 9V12Z" fill="#3525CD"/>
</svg>
