<svg width="36" height="36" viewBox="0 0 36 36" fill="none" xmlns="http://www.w3.org/2000/svg">
<path d="M18 4.5C21.2287 4.5 23.85 7.12125 23.85 10.35C23.85 13.5788 21.2287 16.2 18 16.2C14.7712 16.2 12.15 13.5788 12.15 10.35C12.15 7.12125 14.7712 4.5 18 4.5ZM5.4 8.55C7.63875 8.55 9.45 10.3613 9.45 12.6C9.45 14.8388 7.63875 16.65 5.4 16.65C3.16125 16.65 1.35 14.8388 1.35 12.6C1.35 10.3613 3.16125 8.55 5.4 8.55ZM0 27C0 23.0231 3.22313 19.8 7.2 19.8C7.92 19.8 8.6175 19.9069 9.27562 20.1038C7.425 22.1738 6.3 24.9075 6.3 27.9V28.8C6.3 29.4413 6.435 30.0488 6.67687 30.6H1.8C0.804375 30.6 0 29.7956 0 28.8V27ZM29.3231 30.6C29.565 30.0488 29.7 29.4413 29.7 28.8V27.9C29.7 24.9075 28.575 22.1738 26.7244 20.1038C27.3825 19.9069 28.08 19.8 28.8 19.8C32.7769 19.8 36 23.0231 36 27V28.8C36 29.7956 35.1956 30.6 34.2 30.6H29.3231ZM26.55 12.6C26.55 10.3613 28.3612 8.55 30.6 8.55C32.8387 8.55 34.65 10.3613 34.65 12.6C34.65 14.8388 32.8387 16.65 30.6 16.65C28.3612 16.65 26.55 14.8388 26.55 12.6ZM9 27.9C9 22.9275 13.0275 18.9 18 18.9C22.9725 18.9 27 22.9275 27 27.9V28.8C27 29.7956 26.1956 30.6 25.2 30.6H10.8C9.80437 30.6 9 29.7956 9 28.8V27.9Z" fill="#006E2F"/>
</svg>
