<svg width="46" height="46" viewBox="0 0 46 46" fill="none" xmlns="http://www.w3.org/2000/svg">
<path fill-rule="evenodd" clip-rule="evenodd" d="M20.6829 9.2C21.1768 9.14219 21.6771 9.22434 22.1266 9.43707L28.8638 12.6252C29.1789 12.7743 29.4615 12.9841 29.6956 13.2424C29.9296 13.5008 30.1104 13.8027 30.2277 14.131C30.3451 14.4593 30.3965 14.8074 30.3793 15.1556C30.362 15.5038 30.2763 15.8451 30.127 16.1601L28.234 20.1586C27.9328 20.7945 27.3915 21.2848 26.7289 21.5217C26.0664 21.7586 25.3369 21.7227 24.7008 21.4218L18.788 18.6229C18.3146 18.3985 17.9181 18.039 17.6487 17.5897L17.0294 16.5582C16.924 16.383 16.7612 16.2497 16.5687 16.181C16.3761 16.1123 16.1657 16.1125 15.9732 16.1814L14.2924 16.7829C12.0667 17.5773 9.98966 15.2844 11.0017 13.1472L11.7801 11.4982C11.9726 11.091 12.2655 10.7394 12.6314 10.4766C12.9972 10.2138 13.4239 10.0485 13.8714 9.99615L20.6829 9.2ZM21.3694 11.0365C21.2196 10.9653 21.0528 10.9378 20.8881 10.9568L14.0766 11.753C13.9278 11.7707 13.7859 11.826 13.6643 11.9135C13.5426 12.0011 13.4453 12.1182 13.3813 12.2537L12.5993 13.9044C12.5249 14.0624 12.499 14.239 12.5248 14.4117C12.5505 14.5845 12.6269 14.7458 12.7442 14.8752C12.8616 15.0046 13.0146 15.0964 13.184 15.139C13.3534 15.1816 13.5316 15.1731 13.6962 15.1145L15.377 14.5148C15.9546 14.3082 16.586 14.3081 17.1637 14.5145C17.7414 14.721 18.2298 15.1212 18.5457 15.6471L19.1649 16.6785C19.2548 16.8286 19.3872 16.9487 19.5453 17.0235L25.458 19.8225C25.5631 19.8722 25.6768 19.9008 25.7929 19.9065C25.909 19.9123 26.025 19.8951 26.1344 19.856C26.2439 19.8169 26.3445 19.7566 26.4306 19.6786C26.5167 19.6006 26.5866 19.5064 26.6364 19.4014L28.5294 15.4029C28.5791 15.2978 28.6076 15.1839 28.6132 15.0678C28.6189 14.9516 28.6015 14.8355 28.5623 14.7261C28.523 14.6167 28.4625 14.516 28.3843 14.43C28.3062 14.3439 28.2118 14.2742 28.1066 14.2246L21.3694 11.0365Z" fill="#BA1A1A"/>
<path fill-rule="evenodd" clip-rule="evenodd" d="M30.5058 15.3604C30.807 14.7245 31.3483 14.2342 32.0109 13.9973C32.6734 13.7604 33.4029 13.7964 34.039 14.0972L35.6384 14.8544C36.2746 15.1553 36.7653 15.6965 37.0025 16.359C37.2398 17.0216 37.2041 17.7513 36.9034 18.3876L33.9983 24.5215C33.6972 25.1574 33.1558 25.6477 32.4933 25.8846C31.8307 26.1215 31.1012 26.0856 30.4651 25.7847L28.8658 25.0275C28.2298 24.7264 27.7395 24.185 27.5027 23.5225C27.2658 22.8599 27.3017 22.1304 27.6025 21.4944L30.5058 15.3604ZM33.2835 15.6966C33.1785 15.6468 33.0647 15.6183 32.9487 15.6125C32.8326 15.6068 32.7166 15.6239 32.6071 15.663C32.4977 15.7021 32.3971 15.7624 32.311 15.8404C32.2248 15.9184 32.1549 16.0126 32.1052 16.1177L29.2019 22.2516C29.102 22.4635 29.0902 22.7064 29.1692 22.9269C29.2481 23.1475 29.4113 23.3277 29.623 23.4281L31.2224 24.1854C31.3274 24.2351 31.4412 24.2637 31.5572 24.2694C31.6733 24.2752 31.7893 24.258 31.8988 24.2189C32.0082 24.1798 32.1088 24.1195 32.195 24.0415C32.2811 23.9635 32.351 23.8693 32.4007 23.7643L35.3022 17.6304C35.4022 17.4187 35.4143 17.176 35.3357 16.9554C35.2571 16.7349 35.0943 16.5545 34.8829 16.4538L33.2835 15.6966ZM17.088 35.4341L23.9703 20.8521L25.5697 21.6076L18.6874 36.1878C18.5386 36.5032 18.3291 36.7862 18.0709 37.0206C17.8127 37.255 17.5108 37.4362 17.1825 37.5538C16.8542 37.6715 16.5059 37.7233 16.1576 37.7062C15.8093 37.6892 15.4677 37.6037 15.1525 37.4546L13.5548 36.6991C13.2397 36.55 12.9571 36.3403 12.7231 36.0819C12.4891 35.8236 12.3082 35.5216 12.1909 35.1934C12.0736 34.8651 12.0221 34.5169 12.0394 34.1688C12.0567 33.8206 12.1424 33.4792 12.2916 33.1642L19.1031 18.7715L20.7025 19.5287L13.891 33.9214C13.8412 34.0264 13.8127 34.1402 13.8069 34.2563C13.8012 34.3723 13.8183 34.4884 13.8574 34.5978C13.8965 34.7072 13.9568 34.8079 14.0348 34.894C14.1128 34.9801 14.207 35.05 14.3121 35.0997L15.9097 35.8552C16.0147 35.9049 16.1285 35.9335 16.2445 35.9393C16.3606 35.945 16.4767 35.9279 16.5861 35.8888C16.6955 35.8497 16.7961 35.7894 16.8823 35.7114C16.9684 35.6334 17.0383 35.5392 17.088 35.4341Z" fill="#BA1A1A"/>
<path d="M7.3423 8.63039C7.17174 8.45959 7.07601 8.22803 7.07617 7.98665C7.07634 7.74527 7.17238 7.51384 7.34318 7.34328C7.51398 7.17271 7.74554 7.07698 7.98693 7.07715C8.22831 7.07731 8.45973 7.17336 8.6303 7.34416L38.6559 37.3698C38.8265 37.5403 38.9223 37.7717 38.9223 38.0129C38.9223 38.2541 38.8265 38.4854 38.6559 38.656C38.4853 38.8266 38.254 38.9224 38.0128 38.9224C37.7716 38.9224 37.5402 38.8266 37.3697 38.656L7.3423 8.63039Z" fill="#BA1A1A"/>
<path fill-rule="evenodd" clip-rule="evenodd" d="M23.0001 43.3462C34.2365 43.3462 43.3463 34.2364 43.3463 23C43.3463 11.7636 34.2365 2.65387 23.0001 2.65387C11.7638 2.65387 2.654 11.7636 2.654 23C2.654 34.2364 11.7638 43.3462 23.0001 43.3462ZM23.0001 45.1154C35.2149 45.1154 45.1155 35.2148 45.1155 23C45.1155 10.7853 35.2149 0.884644 23.0001 0.884644C10.7854 0.884644 0.884766 10.7853 0.884766 23C0.884766 35.2148 10.7854 45.1154 23.0001 45.1154Z" fill="#BA1A1A"/>
</svg>
