<svg width="46" height="46" viewBox="0 0 46 46" fill="none" xmlns="http://www.w3.org/2000/svg">
<path fill-rule="evenodd" clip-rule="evenodd" d="M25.875 10.5415C25.875 6.83652 22.8716 3.83313 19.1666 3.83313L18.7986 3.84301C15.2649 4.03411 12.4584 6.96005 12.4584 10.5415C12.4584 14.2464 15.4617 17.2498 19.1666 17.2498L19.5347 17.2399C23.0685 17.0488 25.875 14.1228 25.875 10.5415ZM32.5834 32.5832H32.5828V28.7499L32.5958 28.5264C32.7064 27.5732 33.5166 26.8332 34.4996 26.8332L34.7231 26.8462C35.6763 26.9568 36.4162 27.767 36.4162 28.7499V32.5832H32.5834ZM26.8328 32.5832V42.1666H42.1662V32.5832H40.2496V28.7499C40.2496 25.5742 37.6752 22.9999 34.4996 22.9999C32.8322 22.9999 31.3307 23.7095 30.2804 24.8432C29.3303 25.8688 28.7496 27.2416 28.7496 28.7499V32.5832H26.8328ZM26.8328 28.7499C26.8328 26.7018 27.6359 24.8413 28.9444 23.4661C27.2017 21.9779 24.9629 21.0831 22.5209 21.0831H15.8125L15.3977 21.0918C10.0327 21.3155 5.75 25.8599 5.75 31.4331V38.3331H24.9162V30.6666H26.8328V28.7499Z" fill="#22C55E"/>
</svg>
