<svg width="62" height="62" viewBox="0 0 62 62" fill="none" xmlns="http://www.w3.org/2000/svg">
<path d="M37.6931 36.3914C39.5238 34.5538 40.4392 32.3226 40.4392 29.698C40.4392 27.0733 39.5203 24.8456 37.6827 23.0149C35.8451 21.1842 33.614 20.2688 30.9893 20.2688C28.3647 20.2688 26.137 21.1876 24.3062 23.0252C22.4755 24.8628 21.5602 27.0948 21.5602 29.7212C21.5602 32.3476 22.479 34.5744 24.3166 36.4017C26.1542 38.229 28.3862 39.1444 31.0126 39.1478C33.639 39.1512 35.8658 38.2324 37.6931 36.3914ZM26.0603 34.6502C24.7032 33.2931 24.0247 31.6458 24.0247 29.7083C24.0247 27.7708 24.7032 26.1243 26.0603 24.769C27.4174 23.4136 29.0639 22.735 30.9997 22.7333C32.9354 22.7316 34.5827 23.4101 35.9416 24.769C37.3004 26.1278 37.9781 27.7742 37.9747 29.7083C37.9712 31.6423 37.2935 33.2897 35.9416 34.6502C34.5896 36.0108 32.9423 36.6885 30.9997 36.6833C29.057 36.6781 27.4105 36.0004 26.0603 34.6502ZM15.7063 41.9326C11.1045 38.8877 7.65751 34.813 5.36523 29.7083C7.65579 24.6036 11.1011 20.5288 15.7012 17.484C20.3012 14.4391 25.399 12.9166 30.9945 12.9166C36.59 12.9166 41.6886 14.4391 46.2904 17.484C50.8922 20.5288 54.3401 24.6036 56.6341 29.7083C54.3435 34.813 50.8982 38.8877 46.2982 41.9326C41.6981 44.9775 36.6003 46.5 31.0048 46.5C25.4093 46.5 20.3081 44.9775 15.7063 41.9326ZM44.402 40.0726C48.4699 37.5134 51.5802 34.0586 53.733 29.7083C51.5802 25.3597 48.469 21.9049 44.3994 19.344C40.3298 16.783 35.8632 15.5017 30.9997 15.5C26.1361 15.4982 21.6695 16.7796 17.5999 19.344C13.5303 21.9083 10.4191 25.3631 8.26632 29.7083C10.4191 34.0569 13.5303 37.5125 17.5999 40.0752C21.6695 42.6379 26.1361 43.9184 30.9997 43.9166C35.8632 43.9149 40.3307 42.6319 44.402 40.0726Z" fill="#3525CD"/>
</svg>
